{"title":"Mr. X (2015) v2 Pre DvD Rip - XviD - [1CD] - IcTv LotterY Exclus","uid":11822628,"size":737547740,"categoryP":"video","categoryS":"other","magnet":"?xt=urn:btih:02c2c838f5710943092e6d4bef984d9dbd4092e8&amp;dn=Mr.+X+%282015%29+v2+Pre+DvD+Rip+-+XviD+-+%5B1CD%5D+-+IcTv+LotterY+Exclus&amp;tr=udp%3A%2F%2Ftracker.openbittorrent.com%3A80&amp;tr=udp%3A%2F%2Fopen.demonii.com%3A1337&amp;tr=udp%3A%2F%2Ftracker.coppersurfer.tk%3A6969&amp;tr=udp%3A%2F%2Fexodus.desync.com%3A6969","seeders":23,"leechers":8,"uploader":"SS132203","files":4,"time":1429334937,"description":"Mr. X (2015) v2 Pre DvD Rip - XviD - [1CD] - IcTv LotterY Exclusive -={SPARROW}=-\n &lt;a href=&quot;\nhttp://imgsparrow.co/image/9R&quot; rel=&quot;nofollow&quot; target=&quot;_NEW&quot;&gt;\nhttp://imgsparrow.co/image/9R&lt;/a&gt;\n &lt;a href=&quot;\nhttp://imgsparrow.co/image/9b&quot; rel=&quot;nofollow&quot; target=&quot;_NEW&quot;&gt;\nhttp://imgsparrow.co/image/9b&lt;/a&gt;\n\nMovie Info\nBanner : Vishesh Films\nYear : 2015\nCast : Emraan Hashmi.Amyra Dastur.Nora Fatehi\nVideo: XviD\nAudio : MP3\nGenre : Thriller, 3D, Social\nSubtitles : None\nResolution : 640 x 272\nRuntime : 2hr 04min xx\nSource : Team IcTv\n\nFormat                      : AVI\nFormat/Info                 : Audio Video Interleave\nFile size                   : 693 MiB\nDuration                    : 2h 4mn\nOverall bit rate            : 781 Kbps\n\nVideo\nID                          : 0\nFormat                      : MPEG-4 Visual\nFormat profile              : Advanced Simple@L5\nFormat settings, BVOP       : 2\nFormat settings, QPel       : No\nFormat settings, GMC        : No warppoints\nFormat settings, Matrix     : Default (H.263)\nCodec ID                    : XVID\nCodec ID/Hint               : XviD\nDuration                    : 2h 4mn\nBit rate                    : 647 Kbps\nWidth                       : 640 pixels\nHeight                      : 272 pixels\nDisplay aspect ratio        : 2.35:1\nFrame rate                  : 25.000 fps\nColor space                 : YUV\nChroma subsampling          : 4:2:0\nBit depth                   : 8 bits\nScan type                   : Progressive\nCompression mode            : Lossy\nBits/(Pixel*Frame)          : 0.149\nStream size                 : 574 MiB (83%)\nAudio\nID                          : 1\nFormat                      : MPEG Audio\nFormat version              : Version 1\nFormat profile              : Layer 3\nMode                        : Joint stereo\nMode extension              : MS Stereo\nCodec ID                    : 55\nCodec ID/Hint               : MP3\nDuration                    : 2h 4mn\nBit rate mode               : Constant\nBit rate                    : 128 Kbps\nChannel(s)                  : 2 channels\nSampling rate               : 48.0 KHz\nCompression mode            : Lossy\nStream size                 : 114 MiB (16%)\n &lt;a href=&quot;\nhttp://imgsparrow.co/image/9h&quot; rel=&quot;nofollow&quot; target=&quot;_NEW&quot;&gt;\nhttp://imgsparrow.co/image/9h&lt;/a&gt;\n &lt;a href=&quot;\nhttp://imgsparrow.co/image/LE&quot; rel=&quot;nofollow&quot; target=&quot;_NEW&quot;&gt;\nhttp://imgsparrow.co/image/LE&lt;/a&gt; &lt;a href=&quot;\nhttp://imgsparrow.co/image/LJ&quot; rel=&quot;nofollow&quot; target=&quot;_NEW&quot;&gt;\nhttp://imgsparrow.co/image/LJ&lt;/a&gt; &lt;a href=&quot;\nhttp://imgsparrow.co/image/LU&quot; rel=&quot;nofollow&quot; target=&quot;_NEW&quot;&gt;\nhttp://imgsparrow.co/image/LU&lt;/a&gt; &lt;a href=&quot;\nhttp://imgsparrow.co/image/Lu&quot; rel=&quot;nofollow&quot; target=&quot;_NEW&quot;&gt;\nhttp://imgsparrow.co/image/Lu&lt;/a&gt; &lt;a href=&quot;\nhttp://imgsparrow.co/image/Lw&quot; rel=&quot;nofollow&quot; target=&quot;_NEW&quot;&gt;\nhttp://imgsparrow.co/image/Lw&lt;/a&gt; &lt;a href=&quot;\nhttp://imgsparrow.co/image/L4&quot; rel=&quot;nofollow&quot; target=&quot;_NEW&quot;&gt;\nhttp://imgsparrow.co/image/L4&lt;/a&gt;\n\nSample Within Torrent\nAll Credit Goes To Intellect Clever &amp; IcTv\n\n[img]http://imgsparrow.org/images/2015/02/22/SPARROW.gif","torrent":{"xt":"urn:btih:02c2c838f5710943092e6d4bef984d9dbd4092e8","amp;dn":"Mr.+X+%282015%29+v2+Pre+DvD+Rip+-+XviD+-+%5B1CD%5D+-+IcTv+LotterY+Exclus","amp;tr":["udp%3A%2F%2Ftracker.openbittorrent.com%3A80","udp%3A%2F%2Fopen.demonii.com%3A1337","udp%3A%2F%2Ftracker.coppersurfer.tk%3A6969","udp%3A%2F%2Fexodus.desync.com%3A6969"],"infoHash":"02c2c838f5710943092e6d4bef984d9dbd4092e8","infoHashBuffer":{"type":"Buffer","data":[2,194,200,56,245,113,9,67,9,46,109,75,239,152,77,157,189,64,146,232]},"announce":[],"urlList":[]}}